<?xml version="1.0" encoding="UTF-8" standalone="no"?>
<!DOCTYPE svg PUBLIC "-//W3C//DTD SVG 20010904//EN"
              "http://www.w3.org/TR/2001/REC-SVG-20010904/DTD/svg10.dtd">

<svg xmlns="http://www.w3.org/2000/svg"
     width="1.46667in" height="1.46667in"
     viewBox="0 0 132 132">
  <path id="Imported Path"
        fill="black" stroke="black" stroke-width="1"
        d="M 83.30,46.82
           C 83.30,46.82 84.78,45.34 84.78,45.34
             84.78,45.34 75.61,36.18 75.61,36.18
             75.61,36.18 36.17,75.62 36.17,75.62
             36.17,75.62 34.41,73.85 34.41,73.85
             34.41,73.85 73.85,34.41 73.85,34.41
             73.85,34.41 63.98,24.55 63.98,24.55
             63.98,24.55 24.54,63.99 24.54,63.99
             24.54,63.99 38.88,78.32 38.88,78.32
             38.88,78.32 78.32,38.89 78.32,38.89
             78.32,38.89 80.08,40.65 80.08,40.65
             80.08,40.65 40.64,80.09 40.64,80.09
             40.64,80.09 45.34,84.78 45.34,84.78
             45.34,84.78 46.82,83.30 46.82,83.30
             46.86,83.33 46.90,83.36 46.93,83.40
             46.93,83.40 83.39,46.94 83.39,46.94
             83.36,46.90 83.33,46.86 83.30,46.82 Z
           M 50.14,85.15
           C 50.14,85.15 50.16,85.14 50.16,85.14
             50.10,85.12 50.04,85.11 49.98,85.09
             50.03,85.11 50.08,85.14 50.14,85.15 Z
           M 111.48,96.23
           C 103.93,88.68 94.69,81.84 88.62,77.92
             84.74,75.42 82.55,74.45 79.96,71.86
             77.36,69.26 78.36,62.95 81.26,60.04
             81.26,60.04 81.26,60.04 81.26,60.04
             81.26,60.04 83.08,58.22 83.08,58.22
             85.27,56.03 85.92,52.94 85.13,50.16
             85.13,50.16 50.16,85.14 50.16,85.14
             52.93,85.93 56.03,85.27 58.21,83.09
             58.21,83.09 60.04,81.26 60.04,81.26
             60.04,81.26 60.04,81.26 60.04,81.26
             62.94,78.36 69.26,77.36 71.85,79.96
             74.45,82.56 75.41,84.74 77.92,88.63
             81.83,94.70 88.68,103.93 96.22,111.48
             111.18,126.44 126.72,135.15 130.94,130.94
             135.15,126.73 126.43,111.19 111.48,96.23 Z
           M 119.15,119.16
           C 117.73,120.59 115.42,120.59 113.99,119.16
             112.56,117.74 112.56,115.42 113.99,114.00
             115.42,112.57 117.73,112.57 119.15,114.00
             120.58,115.42 120.58,117.73 119.15,119.16 Z
           M 38.88,78.33
           C 38.88,78.33 38.88,78.32 38.88,78.32
             38.88,78.32 40.64,80.09 40.64,80.09
             40.64,80.09 40.64,80.09 40.64,80.09
             40.64,80.09 38.88,78.33 38.88,78.33 Z
           M 85.15,50.15
           C 85.13,50.09 85.10,50.04 85.08,49.99
             85.10,50.05 85.11,50.10 85.13,50.16
             85.13,50.16 85.15,50.15 85.15,50.15 Z
           M 40.97,1.54
           C 40.97,1.54 40.98,1.53 40.98,1.53
             40.98,1.53 35.86,0.00 35.86,0.00
             35.86,0.00 37.40,5.12 37.40,5.12
             37.40,5.12 32.28,3.59 32.28,3.59
             32.28,3.59 33.81,8.71 33.81,8.71
             33.81,8.71 28.69,7.17 28.69,7.17
             28.69,7.17 30.23,12.29 30.23,12.29
             30.23,12.29 25.11,10.76 25.11,10.76
             25.11,10.76 26.64,15.88 26.64,15.88
             26.64,15.88 21.52,14.34 21.52,14.34
             21.52,14.34 23.05,19.46 23.05,19.46
             23.05,19.46 17.93,17.93 17.93,17.93
             17.93,17.93 19.47,23.05 19.47,23.05
             19.47,23.05 14.35,21.52 14.35,21.52
             14.35,21.52 15.88,26.64 15.88,26.64
             15.88,26.64 10.76,25.10 10.76,25.10
             10.76,25.10 12.29,30.22 12.29,30.22
             12.29,30.22 7.18,28.69 7.18,28.69
             7.18,28.69 8.71,33.81 8.71,33.81
             8.71,33.81 3.59,32.28 3.59,32.28
             3.59,32.28 5.12,37.39 5.12,37.39
             5.12,37.39 0.00,35.86 0.00,35.86
             0.00,35.86 1.54,40.98 1.54,40.98
             1.54,40.98 20.17,59.61 20.17,59.61
             20.17,59.61 59.60,20.17 59.60,20.17
             59.60,20.17 40.97,1.54 40.97,1.54 Z" />
</svg>
