<?xml version="1.0" encoding="UTF-8" standalone="no"?>
<!DOCTYPE svg PUBLIC "-//W3C//DTD SVG 20010904//EN"
              "http://www.w3.org/TR/2001/REC-SVG-20010904/DTD/svg10.dtd">

<svg xmlns="http://www.w3.org/2000/svg"
     width="1.46667in" height="1.46667in"
     viewBox="0 0 132 132">
  <path id="Imported Path"
        fill="black" stroke="black" stroke-width="1"
        d="M 30.09,0.00
           C 30.09,0.00 30.09,21.60 30.09,21.60
             30.09,21.60 44.49,21.60 44.49,21.60
             44.49,21.60 44.49,16.80 44.49,16.80
             44.49,16.80 54.09,16.80 54.09,16.80
             54.09,16.80 54.09,31.20 54.09,31.20
             54.09,31.20 70.89,31.20 70.89,31.20
             70.89,31.20 70.89,21.83 70.89,21.83
             70.89,17.25 78.16,16.06 82.23,16.06
             88.69,16.06 93.92,19.60 97.33,21.79
             100.74,23.98 103.63,18.87 100.71,15.09
             97.89,11.46 85.89,0.00 70.89,0.00
             55.89,0.00 54.09,0.00 54.09,0.00
             54.09,0.00 54.09,4.80 54.09,4.80
             54.09,4.80 44.49,4.80 44.49,4.80
             44.49,4.80 44.49,0.00 44.49,0.00
             44.49,0.00 30.09,0.00 30.09,0.00 Z
           M 55.56,38.40
           C 55.56,38.40 49.29,54.08 49.29,54.08
             49.29,54.08 49.29,132.00 49.29,132.00
             49.29,132.00 73.29,132.00 73.29,132.00
             73.29,132.00 73.29,53.71 73.29,53.71
             73.29,53.71 68.30,38.40 68.30,38.40
             68.30,38.40 55.56,38.40 55.56,38.40 Z" />
</svg>
