<?xml version="1.0" encoding="UTF-8" standalone="no"?>
<!-- Created with Inkscape (http://www.inkscape.org/) -->

<svg
   width="106.14326mm"
   height="106.14392mm"
   viewBox="0 0 106.14326 106.14392"
   version="1.1"
   id="svg5"
   inkscape:version="1.1.1 (3bf5ae0d25, 2021-09-20)"
   sodipodi:docname="logo.svg"
   xmlns:inkscape="http://www.inkscape.org/namespaces/inkscape"
   xmlns:sodipodi="http://sodipodi.sourceforge.net/DTD/sodipodi-0.dtd"
   xmlns="http://www.w3.org/2000/svg"
   xmlns:svg="http://www.w3.org/2000/svg">
  <sodipodi:namedview
     id="namedview7"
     pagecolor="#ffffff"
     bordercolor="#666666"
     borderopacity="1.0"
     inkscape:pageshadow="2"
     inkscape:pageopacity="0.0"
     inkscape:pagecheckerboard="0"
     inkscape:document-units="mm"
     showgrid="true"
     objecttolerance="20"
     inkscape:snap-path-clip="true"
     inkscape:zoom="1.0482005"
     inkscape:cx="280.9577"
     inkscape:cy="213.22257"
     inkscape:window-width="1920"
     inkscape:window-height="1017"
     inkscape:window-x="-8"
     inkscape:window-y="-8"
     inkscape:window-maximized="1"
     inkscape:current-layer="layer2" />
  <defs
     id="defs2" />
  <g
     inkscape:groupmode="layer"
     id="layer2"
     inkscape:label="Layer 2">
    <circle
       style="opacity:1;fill:#b7c8c4;stroke-width:0.500846;stroke-miterlimit:4;stroke-dasharray:none"
       id="path11960"
       cx="53.890972"
       cy="52.376469"
       r="49.347466" />
  </g>
  <g
     inkscape:label="Layer 1"
     inkscape:groupmode="layer"
     id="layer1"
     transform="translate(-43.13793,-84.660186)">
    <g
       id="g4300">
      <path
         id="path5253"
         fill="#000000"
         stroke="#000000"
         stroke-width="1.68261"
         d="m 86.742297,146.77612 0.009,-0.005 c -0.0285,-0.0101 -0.057,-0.0135 -0.0855,-0.0237 0.0237,0.0101 0.0475,0.0237 0.076,0.0284 z m 29.128593,5.26157 c -3.58527,-3.58527 -7.97308,-6.8334 -10.85554,-8.69489 -1.84251,-1.18718 -2.88246,-1.6478 -4.11239,-2.87772 -1.234673,-1.23466 -0.75979,-4.2311 0.61734,-5.61298 v 0 l 0.86425,-0.86426 c 1.03997,-1.03997 1.34865,-2.50732 0.97349,-3.82746 l -16.606243,16.61099 c 1.31539,0.37514 2.78749,0.0617 3.82271,-0.97349 l 0.86901,-0.86902 v 0 c 1.37713,-1.37711 4.37831,-1.852 5.60823,-0.61733 1.23466,1.23466 1.69054,2.26989 2.88247,4.11714 1.856763,2.88247 5.109613,7.26553 8.690143,10.8508 7.10408,7.10406 14.48357,11.24019 16.48753,9.241 1.9992,-1.99921 -2.14166,-9.37872 -9.241,-16.48278 z m -12.50336,-21.88206 c -0.0101,-0.0284 -0.0237,-0.0522 -0.0333,-0.076 0.0101,0.0284 0.0135,0.0523 0.0237,0.0808 l 0.0101,-0.005 z"
         sodipodi:nodetypes="cccccccsscsccscscccccccccc"
         style="opacity:1;fill:#552200;stroke-width:0.383;stroke-miterlimit:4;stroke-dasharray:none" />
      <path
         style="fill:#c8beb7;stroke:#000000;stroke-width:0.264583px;stroke-linecap:butt;stroke-linejoin:miter;stroke-opacity:1"
         d="m 72.510667,134.64766 14.15513,12.09976 16.668433,-16.66779 -12.099403,-14.16088 -18.72416,18.72891"
         id="path10086"
         sodipodi:nodetypes="ccccc" />
      <path
         id="path10609"
         fill="#000000"
         stroke="#000000"
         stroke-width="1.68261"
         d="m 82.387727,107.07216 0.005,-0.005 -2.43134,-0.72655 0.7313,2.43134 -2.43134,-0.72655 0.72656,2.43133 -2.43134,-0.73131 0.7313,2.43134 -2.43134,-0.72655 0.72655,2.43134 -2.43134,-0.7313 0.72656,2.43134 -2.43134,-0.72655 0.7313,2.43133 -2.43134,-0.72655 0.72655,2.43134 -2.43134,-0.7313 0.72655,2.43134 -2.42659,-0.72655 0.72656,2.43134 -2.43134,-0.72655 0.72655,2.42659 -2.43134,-0.72655 0.7313,2.43134 8.84685,8.84684 18.72416,-18.72891 -7.37434,-7.55282 z"
         sodipodi:nodetypes="cccccccccccccccccccccccccccc"
         style="opacity:1;fill:#008000;stroke-width:0.383;stroke-miterlimit:4;stroke-dasharray:none" />
    </g>
    <path
       id="path84"
       style="fill:#0000ff;stroke-width:0.33715"
       d="M 96.209556,84.660186 A 53.071801,53.071801 0 0 0 43.13793,137.73247 53.071801,53.071801 0 0 0 96.209556,190.80411 53.071801,53.071801 0 0 0 149.28119,137.73247 53.071801,53.071801 0 0 0 96.209556,84.660186 Z m 0,6.368331 A 46.703507,46.703507 0 0 1 142.91285,137.73247 46.703507,46.703507 0 0 1 96.209556,184.43576 46.703507,46.703507 0 0 1 49.506262,137.73247 46.703507,46.703507 0 0 1 96.209556,91.028517 Z" />
  </g>
</svg>
