<?xml version="1.0" encoding="UTF-8" standalone="no"?>
<!DOCTYPE svg PUBLIC "-//W3C//DTD SVG 20010904//EN"
              "http://www.w3.org/TR/2001/REC-SVG-20010904/DTD/svg10.dtd">

<svg xmlns="http://www.w3.org/2000/svg"
     width="1.46667in" height="1.46667in"
     viewBox="0 0 132 132">
  <path id="Imported Path"
        fill="black" stroke="black" stroke-width="1"
        d="M 72.97,128.71
           C 72.97,130.52 71.49,132.00 69.68,132.00
             69.68,132.00 53.24,132.00 53.24,132.00
             51.43,132.00 49.95,130.52 49.95,128.71
             49.95,128.71 49.95,95.93 49.95,95.93
             49.95,94.12 51.43,92.64 53.24,92.64
             53.24,92.64 69.68,92.64 69.68,92.64
             71.49,92.64 72.97,94.12 72.97,95.93
             72.97,95.93 72.97,128.71 72.97,128.71 Z
           M 114.02,18.25
           C 114.02,18.25 112.42,18.25 110.16,18.25
             107.18,18.25 107.18,23.29 110.16,23.29
             112.31,23.29 114.02,23.29 114.02,23.29
             114.45,23.29 114.79,23.64 114.79,24.06
             114.79,24.06 114.79,53.11 114.79,53.11
             114.79,53.53 114.45,53.87 114.02,53.87
             114.02,53.87 64.48,53.87 64.48,53.87
             61.28,53.87 58.67,56.48 58.67,59.69
             58.67,59.69 58.67,79.42 58.67,84.86
             58.67,87.77 63.71,87.83 63.71,84.86
             63.71,79.36 63.71,59.69 63.71,59.69
             63.71,59.26 64.06,58.92 64.48,58.92
             64.48,58.92 114.02,58.92 114.02,58.92
             117.23,58.92 119.83,56.31 119.83,53.11
             119.83,53.11 119.83,24.06 119.83,24.06
             119.83,20.86 117.23,18.25 114.02,18.25 Z
           M 102.37,38.48
           C 102.37,40.28 100.89,41.76 99.08,41.76
             99.08,41.76 15.46,41.76 15.46,41.76
             13.65,41.76 12.17,40.28 12.17,38.48
             12.17,38.48 12.17,3.29 12.17,3.29
             12.17,1.48 13.65,0.00 15.46,0.00
             15.46,0.00 99.08,0.00 99.08,0.00
             100.89,0.00 102.37,1.48 102.37,3.29
             102.37,3.29 102.37,38.48 102.37,38.48
             102.37,38.48 102.37,38.48 102.37,38.48 Z" />
</svg>
